<svg width="32" height="32" viewBox="0 0 32 32" fill="none" xmlns="http://www.w3.org/2000/svg">
<circle cx="16" cy="16" r="16" fill="#FFE073"/>
<path d="M26.65 18.1463C26.65 18.58 26.4743 18.9723 26.1904 19.2563C25.9059 19.5403 25.5136 19.7159 25.0803 19.7159H6.91962C6.05308 19.7159 5.35001 19.0133 5.35001 18.1463C5.35001 17.914 5.40026 17.694 5.49054 17.4959C5.5691 17.3237 5.67743 17.1685 5.80962 17.0363C6.09405 16.7523 6.48635 16.5767 6.91962 16.5767H25.0804C25.7152 16.5767 26.2621 16.9533 26.5095 17.4959C26.5997 17.694 26.65 17.914 26.65 18.1463Z" fill="#884D00"/>
<path d="M26.5095 17.4959C26.4309 17.6677 26.3221 17.8233 26.1904 17.9551C25.9059 18.239 25.5136 18.4147 25.0804 18.4147H6.9196C6.28534 18.4147 5.7384 18.038 5.49052 17.496C5.56909 17.3238 5.67737 17.1686 5.8096 17.0364C6.09404 16.7524 6.48634 16.5768 6.9196 16.5768H25.0804C25.7151 16.5767 26.2621 16.9534 26.5095 17.4959Z" fill="#AA6100"/>
<path d="M28 20.983C28 23.0053 27.0637 24.5081 25.5502 25.5049C24.0363 26.5021 21.9451 26.9935 19.6353 26.9935H12.3646C7.74517 26.9935 4 25.0277 4 20.983C4 20.7575 4.05611 20.5438 4.15759 20.3516C4.24347 20.1877 4.36202 20.0398 4.50597 19.9139C4.81825 19.6402 5.25053 19.4709 5.7272 19.4709H26.2728C26.9691 19.4709 27.5692 19.8319 27.8425 20.3516C27.9439 20.5439 28 20.7576 28 20.983Z" fill="#FFA733"/>
<path d="M27.8424 20.3516C27.5165 21.6983 26.6997 22.7472 25.5502 23.5044C24.0362 24.5017 21.9451 24.9931 19.6353 24.9931H12.3646C8.30036 24.9931 4.91336 23.4718 4.15759 20.3516C4.24347 20.1877 4.36201 20.0399 4.50597 19.914C4.81825 19.6403 5.25053 19.4709 5.7272 19.4709H26.2728C26.9691 19.4709 27.5692 19.832 27.8424 20.3516Z" fill="#FFB655"/>
<path d="M22.6744 15.9181L18.614 19.9784C18.5121 20.0799 18.4032 20.1697 18.2881 20.2473C17.4284 20.8293 16.2506 20.7401 15.489 19.9784L11.4286 15.9181H22.6744Z" fill="#EEBF00"/>
<path d="M22.6744 15.9181L18.614 19.9784C18.5121 20.0799 18.4032 20.1697 18.2881 20.2472C17.9783 20.1419 17.6875 19.9657 17.4406 19.7183L13.6403 15.9181H22.6744Z" fill="#FFD422"/>
<path d="M27.5443 16.4845C27.5443 16.6972 27.5092 16.9148 27.433 17.1271C27.1349 17.959 26.3367 18.2819 25.7146 17.8223L24.9686 17.2715C24.448 16.8866 23.784 17.0442 23.4073 17.6423L23.3756 17.6926C23.014 18.2673 22.3837 18.4381 21.8689 18.1014L20.1984 17.009C19.8129 16.7572 19.3509 16.7846 18.9859 17.0817L17.6471 18.1707C17.2627 18.4834 16.7728 18.4966 16.3781 18.2044L14.8509 17.0724C14.4606 16.7831 13.9766 16.7923 13.5936 17.0968L12.2031 18.201C11.8299 18.4971 11.3605 18.5142 10.9746 18.2464L9.1742 16.9954C8.81996 16.7494 8.39307 16.7426 8.03396 16.9773L6.35462 18.0756C5.23632 18.2195 4.69234 17.3984 4.69234 17.3984C4.42449 16.9329 4.39764 16.3811 4.54257 15.9181C4.71479 15.3648 5.13198 14.9384 5.67451 14.9384H26.326C26.8578 14.9384 27.2828 15.3585 27.4575 15.9156C27.514 16.0942 27.5443 16.2869 27.5443 16.4845Z" fill="#6DC82A"/>
<path d="M27.4575 15.9156C27.4501 15.94 27.4418 15.9639 27.4331 15.9883C27.135 16.8207 26.3368 17.1437 25.7147 16.6841L24.9687 16.1328C24.4481 15.7483 23.7841 15.9059 23.4074 16.5036L23.3756 16.5543C23.0141 17.129 22.3837 17.2998 21.869 16.9632L20.1984 15.8707C19.8129 15.6185 19.3509 15.6463 18.986 15.9434L17.6472 17.0324C17.2627 17.3452 16.7729 17.3579 16.3781 17.0656L14.851 15.9337C14.4607 15.6444 13.9767 15.6541 13.5937 15.9581L12.2031 17.0627C11.8299 17.3584 11.3605 17.3759 10.9746 17.108L9.1742 15.857C8.81996 15.6107 8.39307 15.6038 8.03396 15.839L6.35462 16.9368C5.23632 17.0812 4.69234 16.2596 4.69234 16.2596C4.62938 16.1498 4.57965 16.0351 4.54257 15.918C4.71479 15.3648 5.13198 14.9383 5.67451 14.9383H26.326C26.8578 14.9383 27.2828 15.3584 27.4575 15.9156Z" fill="#7ED63E"/>
<path d="M27.1276 13.9342C27.131 14.0967 27.1096 14.2533 27.0676 14.4011C26.8788 15.0588 26.2728 15.5399 25.5546 15.5399C22.7345 15.5399 15.2232 15.4765 14.0904 15.514C14.065 15.515 14.0396 15.516 14.0147 15.5165C12.5842 15.5706 12.2583 15.7999 12.2583 16.5625V19.3529C12.2583 19.4963 12.2002 19.6266 12.1061 19.7207C12.0119 19.8149 11.8821 19.8729 11.7387 19.8729C11.4513 19.8729 11.2186 20.1057 11.2186 20.3931V21.6084C11.2186 21.7319 11.2039 21.8514 11.1756 21.9666C11.0151 22.6311 10.4154 23.1244 9.69531 23.1244H9.65678C8.83806 23.1244 8.17548 22.4594 8.17792 21.6407L8.18476 19.4407C8.18523 19.2719 8.25404 19.1187 8.36481 19.0084C8.47604 18.8977 8.62876 18.8294 8.79807 18.8294C9.1367 18.8294 9.41139 18.5547 9.41139 18.2161V16.5625C9.41139 15.9976 8.95375 15.5399 8.38876 15.5399H6.47514C5.614 15.5399 4.88945 14.8603 4.87187 13.9991C4.85429 13.1155 5.56567 12.3934 6.44537 12.3934H25.5234C26.385 12.3934 27.1105 13.0731 27.1276 13.9342Z" fill="#FF3501"/>
<path d="M27.1276 13.9342C27.131 14.0967 27.1096 14.2533 27.0676 14.4011C24.0821 14.3982 16.9485 14.3392 15.8468 14.3753C14.3519 14.4245 14.0148 14.6485 14.0148 15.4243V15.5165C12.5842 15.5706 12.2583 15.7999 12.2583 16.5625V19.3529C12.2583 19.4963 12.2002 19.6266 12.1061 19.7207C12.0119 19.8149 11.8821 19.8729 11.7387 19.8729C11.4513 19.8729 11.2186 20.1057 11.2186 20.3931V21.6084C11.2186 21.7319 11.2039 21.8514 11.1756 21.9666C10.4701 21.8529 9.93194 21.2396 9.93438 20.5019L9.94122 18.3024C9.94169 18.1331 10.0105 17.9804 10.1213 17.8701C10.2325 17.7594 10.3852 17.6911 10.5545 17.6911C10.8932 17.6911 11.1678 17.4164 11.1678 17.0777V15.4242C11.1678 14.8592 10.7102 14.4016 10.1452 14.4016H8.2316C7.37045 14.4016 6.64591 13.722 6.62833 12.8608C6.62491 12.6984 6.64638 12.5417 6.68885 12.3934H25.5234C26.385 12.3934 27.1105 13.0731 27.1276 13.9342Z" fill="#FF5023"/>
<path d="M18.1267 10.7941L14.6455 14.2767C14.2967 14.6256 13.8854 14.8739 13.4472 15.0208C12.367 15.3858 11.1258 15.1374 10.2661 14.2767L6.78348 10.7941H18.1267Z" fill="#EEBF00"/>
<path d="M18.1268 10.7941L14.6456 14.2767C14.2967 14.6256 13.8854 14.8739 13.4472 15.0208C13.0096 14.8739 12.5983 14.6256 12.2499 14.2767L8.76724 10.7941H18.1268Z" fill="#FFD422"/>
<path d="M28 11.284C28 11.3098 27.999 11.3352 27.9976 11.3606C27.9785 11.6879 27.838 11.9831 27.6204 12.2007C27.3857 12.4354 27.0617 12.5803 26.7036 12.5803H5.29638C4.58059 12.5803 4 11.9997 4 11.284C4 9.73048 4.72014 8.56095 5.80769 7.68124C6.6903 6.96696 7.81539 6.44342 8.99322 6.05946C12.2885 4.98659 16 5.00656 16 5.00656C16 5.00656 28 4.94168 28 11.284Z" fill="#FFA733"/>
<path d="M28 11.284C28 11.3098 27.999 11.3352 27.9976 11.3606H7.93103C7.2153 11.3606 6.63466 10.78 6.63466 10.0642C6.63466 8.5107 7.3548 7.34117 8.44235 6.46151C8.617 6.31999 8.80094 6.18635 8.99317 6.05946C12.2885 4.98659 16 5.00656 16 5.00656C16 5.00656 28 4.94168 28 11.284Z" fill="#FFB655"/>
<path d="M22.45 7.27448C22.6581 7.4947 22.6482 7.8419 22.4281 8.05002C22.2078 8.2581 21.8606 8.24826 21.6526 8.02809C21.4445 7.80791 21.0615 7.04493 21.2817 6.83681C21.5019 6.62868 22.2419 7.05421 22.45 7.27448Z" fill="#FFF5CC"/>
<path d="M19.5421 9.98567C19.6507 10.2685 19.5095 10.5859 19.2266 10.6945C18.9438 10.8031 18.6264 10.6618 18.5178 10.379C18.4092 10.0962 18.3454 9.24486 18.6282 9.13625C18.9111 9.02768 19.4335 9.70283 19.5421 9.98567Z" fill="#FFF5CC"/>
<path d="M16.5486 7.72934C16.5486 8.03234 16.3029 8.27792 16 8.27792C15.697 8.27792 15.4514 8.0323 15.4514 7.72934C15.4514 7.42634 15.697 6.6088 16 6.6088C16.303 6.60875 16.5486 7.42634 16.5486 7.72934Z" fill="#FFF5CC"/>
<path d="M13.5322 10.3294C13.4565 10.6228 13.1572 10.7992 12.8639 10.7234C12.5705 10.6477 12.3941 10.3484 12.4699 10.0551C12.5456 9.76173 12.9879 9.03156 13.2813 9.10731C13.5746 9.18306 13.608 10.0361 13.5322 10.3294Z" fill="#FFF5CC"/>
<path d="M10.5142 7.93987C10.3821 8.2125 10.054 8.3265 9.78127 8.19441C9.50865 8.06231 9.39465 7.73423 9.52674 7.46151C9.65884 7.18889 10.2363 6.56011 10.509 6.69225C10.7817 6.82439 10.6463 7.66725 10.5142 7.93987Z" fill="#FFF5CC"/>
</svg>
