<svg width="32" height="32" viewBox="0 0 32 32" fill="none" xmlns="http://www.w3.org/2000/svg">
<circle cx="16" cy="16" r="16" fill="#FFE073"/>
<g clip-path="url(#clip0)">
<path d="M22.6094 13.2344L23.5469 28C23.6309 28 23.7145 27.985 23.7938 27.9553C23.8128 27.9506 23.8366 27.9453 23.8647 27.9388C24.2534 27.8489 25.2859 27.6102 26.2202 26.8421C27.4012 25.8713 28 24.4472 28 22.6094V13.2344H22.6094Z" fill="#FF7038"/>
<path d="M4 13.2344V20.7344C4 21.0336 4.18933 21.3 4.47184 21.3984L23.3156 27.9609C23.3908 27.9871 23.4689 28 23.5468 28H23.5469V13.2344H4Z" fill="#FFDE46"/>
<path d="M15.1094 25.103L23.3156 27.9609C23.3908 27.9871 23.4689 28 23.5468 28H23.5469V13.2344H15.1094V25.103Z" fill="#FF9D21"/>
<path d="M4 17.4841L23.5469 24.2914V22.8023L4 15.995V17.4841Z" fill="#F5F0EB"/>
<path d="M15.1094 21.353L23.5469 24.2915V22.8024L15.1094 19.864V21.353Z" fill="#EBE1DC"/>
<path d="M23.9038 6.06616C23.7255 5.96107 23.51 5.93993 23.3146 6.00827C22.3643 6.3409 18.6926 7.61866 14.8054 8.97152C10.3815 10.5111 5.80693 12.1032 4.47085 12.5708C4.18852 12.6696 3.99961 12.9362 3.99999 13.2353C4.00036 13.5344 4.18993 13.8006 4.47249 13.8986L16.75 18.1744V21.6719C16.75 22.578 17.4845 23.3126 18.3906 23.3126C19.2967 23.3126 20.0312 22.578 20.0312 21.6719V19.3171L23.3146 20.4606C23.5099 20.529 23.7255 20.5078 23.9038 20.4027C24.0711 20.3041 28 17.9348 28 13.2344C28 13.0403 27.9534 8.45252 23.9038 6.06616V6.06616Z" fill="#FFEF7B"/>
<path d="M23.9038 6.06616C23.7255 5.96107 23.51 5.93993 23.3146 6.00827C22.3891 6.33218 18.8824 7.55262 15.1094 8.86573V17.603L16.75 18.1744V21.6719C16.75 22.578 17.4845 23.3126 18.3906 23.3126C19.2967 23.3126 20.0312 22.578 20.0312 21.6719V19.3171L23.3146 20.4606C23.5099 20.529 23.7255 20.5078 23.9038 20.4027C24.0711 20.3041 28 17.9348 28 13.2344C28 13.0403 27.9535 8.45252 23.9038 6.06616Z" fill="#FFDE46"/>
<path d="M23.3125 10.8906C23.7008 10.8906 24.0156 10.5758 24.0156 10.1875C24.0156 9.79917 23.7008 9.48438 23.3125 9.48438C22.9242 9.48438 22.6094 9.79917 22.6094 10.1875C22.6094 10.5758 22.9242 10.8906 23.3125 10.8906Z" fill="#FF9D21"/>
<path d="M24.25 14.1719C24.6383 14.1719 24.9531 13.8571 24.9531 13.4688C24.9531 13.0804 24.6383 12.7656 24.25 12.7656C23.8617 12.7656 23.5469 13.0804 23.5469 13.4688C23.5469 13.8571 23.8617 14.1719 24.25 14.1719Z" fill="#FF9D21"/>
<path d="M21.9062 16.9844C22.2946 16.9844 22.6094 16.6696 22.6094 16.2812C22.6094 15.8929 22.2946 15.5781 21.9062 15.5781C21.5179 15.5781 21.2031 15.8929 21.2031 16.2812C21.2031 16.6696 21.5179 16.9844 21.9062 16.9844Z" fill="#FF9D21"/>
<path d="M20.5 13.7031C20.8883 13.7031 21.2031 13.3883 21.2031 13C21.2031 12.6117 20.8883 12.2969 20.5 12.2969C20.1117 12.2969 19.7969 12.6117 19.7969 13C19.7969 13.3883 20.1117 13.7031 20.5 13.7031Z" fill="#FF9D21"/>
<path d="M15.1094 8.21892C14.7211 8.21892 14.4062 7.90411 14.4062 7.5158C14.4062 6.62733 13.9126 5.82853 13.1179 5.43113L12.9199 5.33217C12.5726 5.15855 12.4318 4.73616 12.6055 4.38886C12.7792 4.04157 13.2016 3.9008 13.5488 4.07442L13.7468 4.17338C15.021 4.8105 15.8125 6.09122 15.8125 7.5158C15.8125 7.90411 15.4977 8.21892 15.1094 8.21892V8.21892Z" fill="#BEDA4B"/>
<path d="M15.1094 8.21887C15.4977 8.21887 15.8125 7.90406 15.8125 7.51575C15.8125 6.71048 15.5594 5.9513 15.1094 5.32819V8.21887Z" fill="#14CD6E"/>
<path d="M15.1094 12.9063C13.4293 12.9063 12.0625 11.5395 12.0625 9.85941C12.0625 8.17936 13.4293 6.81253 15.1094 6.81253C16.7894 6.81253 18.1563 8.17936 18.1563 9.85941C18.1563 11.5395 16.7894 12.9063 15.1094 12.9063Z" fill="#FF4169"/>
<path d="M18.1563 9.85941C18.1563 8.17936 16.7894 6.81253 15.1094 6.81253V12.9063C16.7894 12.9063 18.1563 11.5395 18.1563 9.85941Z" fill="#CF3160"/>
</g>
<defs>
<clipPath id="clip0">
<rect width="24" height="24" fill="white" transform="translate(4 4)"/>
</clipPath>
</defs>
</svg>
