<svg width="54" height="14" viewBox="0 0 54 14" fill="none" xmlns="http://www.w3.org/2000/svg">
<path d="M10.3505 0.244364H12.864L11.0313 13.0909H8.51782L9.63491 5.25382L6.35346 13.0909H3.96218L4.31127 5.21891L1.39636 13.0909H0L4.43345 1.09964C3.53745 1.40218 2.85091 1.89091 2.37382 2.56582C1.89673 3.24073 1.65818 4.06109 1.65818 5.02691C1.65818 5.25964 1.66982 5.46327 1.69309 5.63782C1.728 5.80073 1.78036 5.952 1.85018 6.09164C1.87345 6.13818 1.88509 6.17309 1.88509 6.19636C1.89673 6.208 1.90255 6.21964 1.90255 6.23127C1.27418 6.23127 0.802909 6.10327 0.488727 5.84727C0.186182 5.57964 0.0349092 5.17818 0.0349092 4.64291C0.0349092 4.08436 0.203636 3.52 0.541091 2.94982C0.890182 2.368 1.36727 1.83855 1.97236 1.36145C2.51927 0.930909 3.10691 0.599273 3.73527 0.366546C4.36364 0.122182 4.98036 0 5.58545 0C5.80655 0 6.02764 0.0232728 6.24873 0.0698183C6.48145 0.104728 6.70255 0.162909 6.912 0.244364L6.51055 9.44291L10.3505 0.244364Z" fill="black"/>
<path d="M18.975 5.88218C18.975 6.848 18.5794 7.69164 17.7881 8.41309C16.9968 9.12291 16.0543 9.50691 14.9605 9.56509C14.9488 9.76291 14.9372 9.91418 14.9255 10.0189C14.9255 10.112 14.9255 10.1935 14.9255 10.2633C14.9255 10.7985 15.0128 11.1767 15.1874 11.3978C15.3735 11.6189 15.7052 11.7295 16.1823 11.7295C16.7292 11.7295 17.2295 11.6073 17.6834 11.3629C18.1488 11.1069 18.6783 10.6415 19.2717 9.96655H19.8652C19.1903 11.0604 18.4572 11.8749 17.6659 12.4102C16.8746 12.9338 16.0077 13.1956 15.0652 13.1956C14.1692 13.1956 13.4885 12.9629 13.023 12.4975C12.5692 12.032 12.3423 11.3396 12.3423 10.4204C12.3423 9.75709 12.447 9.05309 12.6565 8.30836C12.8659 7.56364 13.1452 6.90036 13.4943 6.31855C13.9248 5.62036 14.4368 5.09673 15.0303 4.74764C15.6354 4.38691 16.3103 4.20655 17.055 4.20655C17.695 4.20655 18.1721 4.34618 18.4863 4.62546C18.8121 4.89309 18.975 5.312 18.975 5.88218ZM17.1946 5.13164C16.799 5.13164 16.3975 5.48655 15.9903 6.19636C15.5946 6.89455 15.2979 7.73818 15.1001 8.72727C15.775 8.68073 16.3626 8.37236 16.863 7.80218C17.375 7.22036 17.631 6.56873 17.631 5.84727C17.631 5.60291 17.5961 5.42255 17.5263 5.30618C17.4565 5.18982 17.3459 5.13164 17.1946 5.13164Z" fill="black"/>
<path d="M25.1112 5.16655V5.28873L25.3032 4.36364H27.8167L26.56 10.2982C26.5367 10.4029 26.5192 10.5018 26.5076 10.5949C26.496 10.6764 26.4901 10.7636 26.4901 10.8567C26.4901 11.1127 26.5483 11.3047 26.6647 11.4327C26.781 11.5491 26.9614 11.6073 27.2058 11.6073C27.5083 11.6073 27.7818 11.4676 28.0261 11.1884C28.2705 10.8975 28.4683 10.4902 28.6196 9.96655H29.3527C28.9803 11.0371 28.4974 11.8458 27.904 12.3927C27.3105 12.928 26.624 13.1956 25.8443 13.1956C25.344 13.1956 24.9425 13.056 24.64 12.7767C24.349 12.4975 24.1803 12.1018 24.1338 11.5898C23.773 12.1251 23.3716 12.5265 22.9294 12.7942C22.4989 13.0618 22.0334 13.1956 21.533 13.1956C20.8116 13.1956 20.2414 12.9513 19.8225 12.4625C19.4152 11.9738 19.2116 11.2815 19.2116 10.3855C19.2116 9.73382 19.3105 9.05309 19.5083 8.34327C19.7061 7.63346 19.9796 6.98764 20.3287 6.40582C20.7592 5.71927 21.2596 5.19564 21.8298 4.83491C22.4 4.46255 23.0225 4.27636 23.6974 4.27636C24.1512 4.27636 24.5003 4.35782 24.7447 4.52073C24.989 4.672 25.1112 4.88727 25.1112 5.16655ZM24.9541 6.02182C24.9541 5.84727 24.8901 5.696 24.7621 5.568C24.6341 5.42836 24.4596 5.35855 24.2385 5.35855C23.5985 5.35855 23.0283 5.89382 22.528 6.96436C22.0392 8.03491 21.7949 9.09382 21.7949 10.1411C21.7949 10.5949 21.8589 10.9382 21.9869 11.1709C22.1149 11.392 22.3418 11.5025 22.6676 11.5025C22.9701 11.5025 23.261 11.3571 23.5403 11.0662C23.8312 10.7753 24.0232 10.4087 24.1163 9.96655L24.9541 6.02182Z" fill="black"/>
<path d="M28.4864 11.1011C28.4864 10.9498 28.498 10.7811 28.5213 10.5949C28.5445 10.3971 28.5795 10.1876 28.626 9.96655L30.4936 1.22182L33.0769 0.872727L31.0696 10.2982C31.0464 10.4029 31.0289 10.5018 31.0173 10.5949C31.0056 10.6764 30.9998 10.7636 30.9998 10.8567C30.9998 11.0895 31.0522 11.2582 31.1569 11.3629C31.2733 11.456 31.4595 11.5025 31.7155 11.5025C32.0413 11.5025 32.3496 11.3629 32.6405 11.0836C32.9315 10.7927 33.1467 10.4204 33.2864 9.96655H34.0195C33.6471 11.0255 33.1467 11.8284 32.5184 12.3753C31.89 12.9222 31.1685 13.1956 30.354 13.1956C29.7722 13.1956 29.3125 13.0153 28.9751 12.6545C28.6493 12.2822 28.4864 11.7644 28.4864 11.1011Z" fill="black"/>
<path d="M38.7601 10.176C38.7601 10.3156 38.7543 10.4378 38.7427 10.5425C38.731 10.6473 38.7136 10.7462 38.6903 10.8393C38.923 10.6996 39.15 10.5542 39.371 10.4029C39.5921 10.2516 39.7841 10.1062 39.947 9.96655H40.6801C40.3194 10.3855 39.918 10.7753 39.4758 11.136C39.0452 11.4851 38.5565 11.8225 38.0096 12.1484C37.6954 12.4858 37.294 12.7476 36.8052 12.9338C36.3165 13.1084 35.8045 13.1956 35.2692 13.1956C34.4896 13.1956 33.867 12.9862 33.4016 12.5673C32.9478 12.1367 32.7209 11.6015 32.7209 10.9615C32.7209 10.6007 32.8081 10.2749 32.9827 9.984C33.1572 9.68146 33.3783 9.46618 33.646 9.33818C34.0416 8.62836 34.4081 7.872 34.7456 7.06909C35.0947 6.25455 35.4438 5.28873 35.7929 4.17164L38.3761 3.82255C38.411 4.69527 38.4518 5.49236 38.4983 6.21382C38.5449 6.93527 38.603 7.72073 38.6729 8.57018C38.7078 9.05891 38.731 9.40218 38.7427 9.6C38.7543 9.79782 38.7601 9.98982 38.7601 10.176ZM35.8976 6.05673C35.7463 6.53382 35.5601 7.03418 35.339 7.55782C35.1296 8.06982 34.8445 8.66909 34.4838 9.35564C34.6118 9.41382 34.7107 9.49527 34.7805 9.6C34.8503 9.70473 34.8852 9.82691 34.8852 9.96655C34.8852 10.1876 34.8096 10.3855 34.6583 10.56C34.507 10.7345 34.3267 10.8218 34.1172 10.8218C34.0009 10.8218 33.902 10.8044 33.8205 10.7695C33.739 10.7229 33.6809 10.6647 33.646 10.5949C33.646 11.0255 33.7274 11.3396 33.8903 11.5375C34.0649 11.7236 34.3383 11.8167 34.7107 11.8167C35.1878 11.8167 35.5601 11.6771 35.8278 11.3978C36.0954 11.1185 36.2292 10.7171 36.2292 10.1935C36.2292 10.0305 36.2234 9.86764 36.2118 9.70473C36.2001 9.53018 36.1769 9.24509 36.142 8.84945C36.0838 8.30255 36.0372 7.81964 36.0023 7.40073C35.9674 6.98182 35.9325 6.53382 35.8976 6.05673Z" fill="black"/>
<path d="M53.4721 11.8232C53.4126 11.7282 53.3085 11.67 53.1966 11.67H38.3233C38.2114 11.67 38.1073 11.7282 38.0484 11.8232C37.9896 11.9183 37.9838 12.0373 38.0342 12.1375C38.4882 13.0461 39.4006 13.61 40.4159 13.61H51.104C52.1186 13.61 53.031 13.0461 53.4863 12.1382C53.5355 12.0373 53.5309 11.9189 53.4721 11.8232Z" fill="black"/>
<path d="M46.6465 5.27055C46.6995 5.15091 46.7299 5.01899 46.7299 4.87997C46.7299 4.34517 46.2947 3.90997 45.7599 3.90997C45.2251 3.90997 44.7899 4.34517 44.7899 4.87997C44.7899 5.01902 44.8203 5.15094 44.8734 5.27055C41.9433 5.67343 39.6295 8.03247 39.3327 11.0233H52.1865C51.8897 8.03378 49.5753 5.67343 46.6465 5.27055ZM45.4579 7.14265C43.6492 7.26229 42.0914 8.44309 41.4906 10.151C41.4441 10.2835 41.3186 10.3669 41.1854 10.3669C41.1499 10.3669 41.1136 10.3611 41.0781 10.3488C40.9099 10.2893 40.8214 10.105 40.8802 9.93625C41.567 7.98331 43.3472 6.63373 45.4153 6.49727C45.5866 6.48626 45.747 6.62012 45.7593 6.7986C45.7709 6.97711 45.6364 7.13101 45.4579 7.14265Z" fill="black"/>
</svg>
