<svg width="32" height="32" viewBox="0 0 32 32" fill="none" xmlns="http://www.w3.org/2000/svg">
<circle cx="16" cy="16" r="16" fill="#FFE073"/>
<path d="M10.4884 17.7272C11.3715 17.7272 12.0874 17.0113 12.0874 16.1282C12.0874 15.2451 11.3715 14.5293 10.4884 14.5293C9.60534 14.5293 8.88947 15.2451 8.88947 16.1282C8.88947 17.0113 9.60534 17.7272 10.4884 17.7272Z" fill="#FFAB5F"/>
<path d="M21.5225 17.7272C22.4056 17.7272 23.1215 17.0113 23.1215 16.1282C23.1215 15.2451 22.4056 14.5293 21.5225 14.5293C20.6395 14.5293 19.9236 15.2451 19.9236 16.1282C19.9236 17.0113 20.6395 17.7272 21.5225 17.7272Z" fill="#FFAB5F"/>
<path d="M14.7904 10.7355C15.0798 10.0239 15.7345 9.5201 16.499 9.4211C16.7029 9.39465 16.9058 9.4771 17.0335 9.63844C17.5116 10.2429 17.6291 11.0604 17.3396 11.7722C17.0502 12.4839 16.3955 12.9877 15.6311 13.0867C15.4271 13.1131 15.2243 13.0306 15.0968 12.8694C14.6183 12.265 14.501 11.4473 14.7904 10.7355Z" fill="#78B591"/>
<path d="M12.4893 13.3612C11.7776 13.0716 11.2739 12.417 11.1748 11.6525C11.1483 11.4485 11.2308 11.2457 11.3921 11.1181C11.9965 10.6398 12.814 10.5225 13.5259 10.8119C14.2376 11.1014 14.7414 11.756 14.8403 12.5205C14.8668 12.7244 14.7843 12.9272 14.6232 13.0548C14.0186 13.5331 13.201 13.6505 12.4893 13.3612Z" fill="#B0CE6F"/>
<path d="M15.0824 14.087C15.0301 14.087 14.977 14.0771 14.9256 14.0562C14.7123 13.9695 14.6098 13.7263 14.6964 13.513L15.6679 11.1239C15.7546 10.9107 15.9976 10.8079 16.211 10.8948C16.4243 10.9814 16.5269 11.2247 16.4402 11.4379L15.4687 13.8271C15.4029 13.9889 15.247 14.087 15.0824 14.087Z" fill="#659B7B"/>
<path d="M15.4236 13.486C15.3713 13.486 15.3181 13.4761 15.2667 13.4551L12.8777 12.4835C12.6644 12.3969 12.5619 12.1536 12.6486 11.9404C12.7352 11.7271 12.9785 11.6245 13.1917 11.7113L15.5808 12.6828C15.794 12.7696 15.8966 13.0127 15.8099 13.226C15.7441 13.3879 15.5882 13.486 15.4236 13.486Z" fill="#7E8E51"/>
<path d="M19.06 14.8438C19.06 13.9715 18.3529 13.2645 17.4807 13.2645C17.4004 13.2645 17.3218 13.2704 17.2448 13.282C17.011 12.7021 16.4434 12.2924 15.7798 12.2924C15.1209 12.2924 14.5565 12.696 14.3196 13.2694C14.2802 13.2665 14.2404 13.2645 14.2003 13.2645C13.3281 13.2645 12.621 13.9715 12.621 14.8438C12.621 14.8512 12.6214 14.8586 12.6215 14.8662C11.9993 14.9802 11.5275 15.525 11.5275 16.1802C11.5275 16.9183 12.1258 17.5167 12.8639 17.5167C13.5192 17.5167 18.3972 17.5167 19.06 17.5167C19.798 17.5167 20.3964 16.9183 20.3964 16.1802C20.3965 15.4421 19.798 14.8438 19.06 14.8438Z" fill="#EF645E"/>
<path d="M17.6021 14.8596H17.3902C17.1599 14.8596 16.9734 14.673 16.9734 14.4428C16.9734 14.2126 17.1599 14.026 17.3902 14.026H17.6021C17.8324 14.026 18.0189 14.2126 18.0189 14.4428C18.019 14.673 17.8324 14.8596 17.6021 14.8596Z" fill="#C14616"/>
<path opacity="0.1" d="M13.2543 16.7499C13.2543 16.0946 13.7261 15.5498 14.3483 15.4358C14.3482 15.4283 14.3477 15.4209 14.3477 15.4134C14.3477 14.5412 15.0548 13.8341 15.9271 13.8341C15.9672 13.8341 16.007 13.8361 16.0464 13.839C16.2256 13.405 16.5928 13.0687 17.0464 12.9307C16.7587 12.5438 16.2991 12.2924 15.7798 12.2924C15.1209 12.2924 14.5565 12.696 14.3196 13.2693C14.2802 13.2664 14.2404 13.2644 14.2003 13.2644C13.3281 13.2644 12.621 13.9715 12.621 14.8438C12.621 14.8512 12.6214 14.8586 12.6215 14.8661C11.9993 14.9801 11.5275 15.5249 11.5275 16.1801C11.5275 16.9182 12.1258 17.5166 12.8639 17.5166C12.9721 17.5166 13.1959 17.5166 13.4964 17.5166C13.344 17.2995 13.2543 17.0353 13.2543 16.7499Z" fill="black"/>
<path d="M15.8095 13.9484H15.5975C15.3673 13.9484 15.1807 13.7618 15.1807 13.5316C15.1807 13.3014 15.3674 13.1148 15.5975 13.1148H15.8095C16.0397 13.1148 16.2262 13.3014 16.2262 13.5316C16.2262 13.7618 16.0396 13.9484 15.8095 13.9484Z" fill="#FFAB5F"/>
<path d="M15.1724 15.2241H14.9604C14.7302 15.2241 14.5436 15.0374 14.5436 14.8073C14.5436 14.577 14.7303 14.3905 14.9604 14.3905H15.1724C15.4026 14.3905 15.5892 14.577 15.5892 14.8073C15.5892 15.0375 15.4025 15.2241 15.1724 15.2241Z" fill="#C14616"/>
<path d="M17.0244 16.1353H16.8124C16.5822 16.1353 16.3956 15.9487 16.3956 15.7185C16.3956 15.4883 16.5822 15.3017 16.8124 15.3017H17.0244C17.2546 15.3017 17.4412 15.4883 17.4412 15.7185C17.4412 15.9487 17.2546 16.1353 17.0244 16.1353Z" fill="#FFAB5F"/>
<path d="M13.5322 16.1353H13.3202C13.0901 16.1353 12.9035 15.9487 12.9035 15.7185C12.9035 15.4883 13.0901 15.3017 13.3202 15.3017H13.5322C13.7624 15.3017 13.949 15.4883 13.949 15.7185C13.949 15.9487 13.7625 16.1353 13.5322 16.1353Z" fill="#FFAB5F"/>
<path d="M27.149 20.0873C27.149 21.9291 25.656 23.4221 23.8143 23.4221H11.4757C9.63402 23.4221 8.14098 21.9291 8.14098 20.0873C8.14098 18.2456 9.63402 16.7526 11.4757 16.7526H23.8143C25.656 16.7526 27.149 18.2457 27.149 20.0873Z" fill="#FFE783"/>
<path d="M11.4757 22.3105C10.2499 22.3105 9.25258 21.3132 9.25258 20.0873C9.25258 18.8615 10.2499 17.8641 11.4757 17.8641H23.8143C25.0401 17.8641 26.0375 18.8615 26.0375 20.0873C26.0375 21.3132 25.0401 22.3105 23.8143 22.3105H11.4757Z" fill="#FFF4BD"/>
<path d="M11.4757 21.1989C10.8628 21.1989 10.3642 20.7002 10.3642 20.0873C10.3642 19.4744 10.8629 18.9758 11.4757 18.9758H23.8143C24.4273 18.9758 24.9259 19.4744 24.9259 20.0873C24.9259 20.7003 24.4272 21.1989 23.8143 21.1989H11.4757Z" fill="#F7E07C"/>
<path d="M22.5916 21.3001C22.5916 22.8349 21.3474 24.0791 19.8126 24.0791H15.6998C14.165 24.0791 12.9208 22.8349 12.9208 21.3001C12.9208 19.7654 14.165 18.5212 15.6998 18.5212H19.8126C21.3474 18.5212 22.5916 19.7654 22.5916 21.3001Z" fill="#FFE783"/>
<path d="M15.6998 22.9675C14.7804 22.9675 14.0325 22.2195 14.0325 21.3002C14.0325 20.3808 14.7804 19.6328 15.6998 19.6328H19.8126C20.732 19.6328 21.4799 20.3808 21.4799 21.3002C21.4799 22.2195 20.732 22.9675 19.8126 22.9675H15.6998Z" fill="#FFF4BD"/>
<path d="M15.6998 21.856C15.3934 21.856 15.1441 21.6066 15.1441 21.3002C15.1441 20.9938 15.3934 20.7445 15.6998 20.7445H19.8126C20.1191 20.7445 20.3684 20.9938 20.3684 21.3002C20.3684 21.6066 20.119 21.856 19.8126 21.856H15.6998Z" fill="#FFE783"/>
<path d="M14.9217 19.5316C14.9217 21.0663 13.6775 22.3105 12.1427 22.3105H8.02987C6.49511 22.3105 5.25096 21.0663 5.25096 19.5316C5.25096 17.9968 6.49511 16.7526 8.02987 16.7526H12.1427C13.6775 16.7526 14.9217 17.9968 14.9217 19.5316Z" fill="#F7E07C"/>
<path d="M8.02986 21.1989C7.11055 21.1989 6.36253 20.4509 6.36253 19.5316C6.36253 18.6122 7.11055 17.8642 8.02986 17.8642H12.1427C13.062 17.8642 13.8101 18.6122 13.8101 19.5316C13.8101 20.4509 13.062 21.1989 12.1427 21.1989H8.02986Z" fill="#FFF4BD"/>
<path d="M8.02988 20.0873C7.72344 20.0873 7.47414 19.838 7.47414 19.5316C7.47414 19.2252 7.72349 18.9758 8.02988 18.9758H12.1427C12.4492 18.9758 12.6985 19.2252 12.6985 19.5316C12.6985 19.838 12.4492 20.0873 12.1427 20.0873H8.02988Z" fill="#FFE783"/>
<path d="M8.02986 12.2785H6.59189C5.34707 12.2785 4.33422 11.2657 4.33422 10.0209C4.33422 8.77604 5.34707 7.76324 6.59189 7.76324H7.96237C8.19259 7.76324 8.3792 7.9498 8.3792 8.18002C8.3792 8.41025 8.19254 8.59686 7.96237 8.59686H6.59189C5.80669 8.59686 5.16783 9.23566 5.16783 10.0209C5.16783 10.8061 5.80659 11.4449 6.59189 11.4449H8.02981C8.26004 11.4449 8.44664 11.6316 8.44664 11.8617C8.44675 12.0919 8.26009 12.2785 8.02986 12.2785Z" fill="#F2D8A0"/>
<path d="M11.5304 8.59684H9.92253C9.6923 8.59684 9.5057 8.41018 9.5057 8.18001C9.5057 7.94983 9.69236 7.76323 9.92253 7.76323H11.5304C12.435 7.76323 13.171 7.02728 13.171 6.12261C13.171 5.218 12.435 4.48205 11.5304 4.48205H9.71499C9.48477 4.48205 9.29816 4.29539 9.29816 4.06522C9.29816 3.83504 9.48482 3.64844 9.71499 3.64844H11.5304C12.8947 3.64844 14.0047 4.75842 14.0047 6.12272C14.0047 7.48685 12.8947 8.59684 11.5304 8.59684Z" fill="#FCE9C3"/>
<path d="M25.0684 10.5555H21.7585C21.0686 10.5555 20.5073 9.99424 20.5073 9.30439C20.5073 8.61448 21.0686 8.05328 21.7585 8.05328H22.9093C23.1395 8.05328 23.3261 7.86662 23.3261 7.63644C23.3261 7.40622 23.1395 7.21967 22.9093 7.21967H21.7585C20.609 7.21967 19.6737 8.15485 19.6737 9.30439C19.6737 10.4539 20.609 11.3892 21.7585 11.3892H25.0684C25.6092 11.3892 26.0491 11.8291 26.0491 12.3698V13.2773C26.0491 13.5075 26.2357 13.6941 26.4659 13.6941C26.6961 13.6941 26.8827 13.5074 26.8827 13.2773V12.3698C26.8827 11.3695 26.0689 10.5555 25.0684 10.5555Z" fill="#F2D8A0"/>
<path d="M6.68316 22.5804C7.12216 23.8441 8.32233 24.7517 9.73556 24.7517H22.6643C24.0777 24.7517 25.2778 23.8441 25.7168 22.5804H6.68316Z" fill="#B3B3B3"/>
<path opacity="0.1" d="M8.93417 22.5804H6.68316C7.12216 23.8441 8.32233 24.7517 9.73556 24.7517H11.9865C10.5732 24.7517 9.37312 23.8441 8.93417 22.5804Z" fill="black"/>
<path d="M29.4 22.2734C29.4 22.7606 29.0051 23.1555 28.5179 23.1555H3.88208C3.39492 23.1555 3 22.7606 3 22.2734C3 21.7862 3.39492 21.3913 3.88208 21.3913H28.5179C29.0051 21.3913 29.4 21.7862 29.4 22.2734Z" fill="#CCCCCC"/>
<path opacity="0.1" d="M5.25096 22.2734C5.25096 21.7862 5.64583 21.3913 6.13304 21.3913H3.88208C3.39492 21.3913 3 21.7862 3 22.2734C3 22.7606 3.39492 23.1555 3.88208 23.1555H6.13304C5.64583 23.1555 5.25096 22.7606 5.25096 22.2734Z" fill="black"/>
</svg>
