<svg width="32" height="32" viewBox="0 0 32 32" fill="none" xmlns="http://www.w3.org/2000/svg">
<path d="M32 16C32 24.8366 24.8366 32 16 32C7.16344 32 0 24.8366 0 16C0 7.16344 7.16344 0 16 0C24.8366 0 32 7.16344 32 16Z" fill="#FFE073"/>
<path d="M27.8463 18.746L27.5092 17.9316L23.6324 8.56753C23.5966 8.48133 23.5283 8.41308 23.4421 8.37727L13.2553 4.15866C13.1655 4.1212 13.0644 4.12284 12.9756 4.1633C12.8871 4.20342 12.8191 4.27866 12.788 4.37081L12.1562 6.23766L6.07382 24.2079L6.07218 24.2136C5.90643 24.7042 6.03075 25.2368 6.39703 25.6031C6.58031 25.7864 6.80507 25.909 7.04536 25.9651C7.28568 26.0211 7.54157 26.0105 7.78682 25.9276L19.3144 22.0282L19.9528 21.3686L22.8869 20.8197L25.768 19.8451L27.6344 19.2137C27.7266 19.1825 27.8012 19.1146 27.8416 19.0257C27.8818 18.9372 27.8834 18.8362 27.8463 18.746Z" fill="#F9D11F"/>
<path d="M27.6345 19.2137L25.768 19.8452L22.887 20.8197L19.9529 21.3686L19.3145 22.0282L7.78683 25.9276C7.54154 26.0105 7.28565 26.0211 7.04537 25.9651C6.80504 25.9091 6.58032 25.7864 6.39704 25.6031C6.03076 25.2368 5.90649 24.7041 6.07219 24.2136L6.07383 24.208C6.56973 24.6369 7.25879 24.7751 7.88626 24.5633L27.5092 17.9316L27.8462 18.746C27.8834 18.8361 27.8817 18.9372 27.8416 19.0257C27.8012 19.1146 27.7267 19.1825 27.6345 19.2137Z" fill="#FFA402"/>
<path d="M27.6345 19.2137L25.768 19.8451C25.6775 19.4603 25.5659 19.0556 25.4286 18.6346C24.72 16.4615 23.3295 13.8465 20.688 11.2044C17.5332 8.05144 14.5408 6.80578 12.1695 6.25026L12.1562 6.23766L12.788 4.37081C12.8191 4.27866 12.8871 4.20342 12.9756 4.1633C13.0644 4.12284 13.1655 4.1212 13.2553 4.15866L23.4421 8.37726C23.5283 8.41308 23.5966 8.48133 23.6324 8.56753L27.5092 17.9316L27.8463 18.746C27.8834 18.8361 27.8818 18.9372 27.8416 19.0257C27.8012 19.1146 27.7267 19.1825 27.6345 19.2137Z" fill="#FDEDA5"/>
<path d="M27.6345 19.2137L25.768 19.8452C25.6775 19.4603 25.5659 19.0556 25.4286 18.6346L27.5092 17.9316L27.8463 18.746C27.8834 18.8361 27.8818 18.9372 27.8416 19.0257C27.8012 19.1146 27.7267 19.1825 27.6345 19.2137Z" fill="#FBDF63"/>
<path d="M29.9696 18.3794C29.4473 15.8894 27.9788 12.0755 23.9506 8.04713C19.9217 4.02009 16.1072 2.55239 13.6166 2.02997C12.8844 1.8765 12.1632 2.32664 11.9732 3.04163C11.967 3.06581 11.9613 3.09 11.956 3.11456C11.8787 3.4815 11.9494 3.85575 12.1545 4.16963C12.2083 4.2525 12.2702 4.32839 12.3385 4.39669C12.5291 4.58728 12.7707 4.71886 13.0405 4.77525C15.1586 5.21944 18.4261 6.49158 21.9672 10.0307C25.5068 13.5711 26.7797 16.8381 27.2242 18.9552C27.2798 19.2223 27.4114 19.4653 27.604 19.6579L27.6044 19.6582C27.9408 19.9946 28.4198 20.1375 28.8848 20.0397C28.9093 20.0344 28.9342 20.0288 28.9581 20.0221C29.2935 19.9333 29.5802 19.7268 29.7712 19.4344C29.9763 19.1205 30.0466 18.746 29.9696 18.3794Z" fill="#F79E60"/>
<path d="M29.9696 18.3794C29.4473 15.8894 27.9788 12.0755 23.9506 8.04713C19.9217 4.02009 16.1072 2.55239 13.6166 2.02997C12.8844 1.8765 12.1632 2.32664 11.9732 3.04163C12.1787 2.9866 12.3998 2.97764 12.6222 3.02438C15.1128 3.5468 18.9273 5.0145 22.9562 9.04153C26.9845 13.0699 28.4529 16.8838 28.9753 19.3738C29.021 19.5919 29.0147 19.813 28.958 20.0221C29.2935 19.9333 29.5802 19.7268 29.7711 19.4344C29.9763 19.1205 30.0466 18.746 29.9696 18.3794Z" fill="#D77D41"/>
<path d="M17.1303 11.3116C17.1302 10.7204 16.9 10.1646 16.4819 9.74648C16.4819 9.74644 16.4818 9.74634 16.4818 9.7463C15.6185 8.88323 14.2138 8.88323 13.3506 9.7463C12.9323 10.1644 12.702 10.7203 12.702 11.3117C12.702 11.9029 12.9323 12.4587 13.3504 12.8768C13.3504 12.8769 13.3505 12.877 13.3506 12.8771C14.2139 13.7401 15.6185 13.7401 16.4818 12.8771C16.8999 12.4589 17.1302 11.903 17.1303 11.3116Z" fill="#ED2061"/>
<path d="M15.2898 16.7065C15.2898 16.7065 15.2897 16.7065 15.2897 16.7064C14.4264 15.8433 13.0217 15.8433 12.1585 16.7064C11.7403 17.1245 11.5099 17.6805 11.5099 18.2718C11.5099 18.863 11.7402 19.4188 12.1582 19.837C12.1583 19.837 12.1584 19.8371 12.1585 19.8371C13.0218 20.7002 14.4264 20.7002 15.2897 19.8371C15.7079 19.419 15.9382 18.8631 15.9382 18.2718C15.9382 17.6805 15.7079 17.1247 15.2898 16.7065Z" fill="#ED2061"/>
<path d="M22.8873 20.82L19.3118 22.0202L19.1577 21.8661C18.8952 21.6036 18.7069 21.2867 18.6028 20.9413C18.5412 20.7365 18.5093 20.521 18.5093 20.3009C18.5093 19.7096 18.7397 19.1537 19.1577 18.7357C19.5896 18.3044 20.1567 18.0887 20.7235 18.0887C21.2903 18.0887 21.8574 18.3044 22.289 18.736C22.5173 18.9644 22.689 19.2322 22.7984 19.5232C22.9257 19.862 22.9681 20.2312 22.9167 20.6042L22.8873 20.82Z" fill="#ED2061"/>
<path d="M11.297 21.0074C11.2747 20.8534 11.1537 20.7324 10.9996 20.7101C10.9719 20.706 10.7192 20.6715 10.3968 20.7017C9.93474 20.7449 9.55496 20.9033 9.29841 21.1598C9.04186 21.4163 8.88338 21.7961 8.84016 22.2581C8.80997 22.5805 8.84452 22.8331 8.84855 22.8608C8.85971 22.9379 8.89556 23.0066 8.94783 23.0589C9.0001 23.1112 9.06886 23.147 9.14588 23.1582C9.17358 23.1622 9.42624 23.1967 9.74874 23.1665C10.2108 23.1233 10.5906 22.9649 10.8471 22.7084C11.1037 22.4519 11.2621 22.0722 11.3054 21.6102C11.3355 21.2877 11.301 21.0351 11.297 21.0074Z" fill="#68C044"/>
<path d="M19.3938 17.1986C19.4041 17.1725 19.4953 16.9344 19.5395 16.6136C19.6028 16.1539 19.5351 15.748 19.3439 15.4398C19.1526 15.1315 18.8189 14.8907 18.3789 14.7434C18.0717 14.6404 17.8179 14.6164 17.79 14.614C17.635 14.6007 17.4896 14.6909 17.4327 14.8357C17.4224 14.8618 17.3312 15.0999 17.287 15.4207C17.2238 15.8804 17.2914 16.2862 17.4826 16.5945C17.5363 16.681 17.6012 16.7622 17.6765 16.8375C17.8696 17.0305 18.1311 17.1849 18.4476 17.291C18.7547 17.3939 19.0086 17.4179 19.0365 17.4203C19.1916 17.4336 19.3369 17.3435 19.3938 17.1986Z" fill="#68C044"/>
<path d="M22.8873 20.82L19.3118 22.0202L19.1577 21.8661C18.8952 21.6036 18.7069 21.2867 18.6028 20.9413L22.7985 19.5233C22.9257 19.8621 22.9681 20.2313 22.9168 20.6042L22.8873 20.82Z" fill="#C71E54"/>
<path d="M12.9893 14.7165L12.4529 13.8803C12.3481 13.7167 12.1306 13.6694 11.9672 13.7742C11.8037 13.8791 11.7563 14.0965 11.8611 14.26L12.3975 15.0962C12.4114 15.118 12.4274 15.1377 12.4449 15.1553C12.5593 15.2696 12.7415 15.2932 12.8832 15.2023C13.0466 15.0974 13.0941 14.88 12.9893 14.7165Z" fill="#FDEDA5"/>
<path d="M20.4908 13.7862L19.7363 13.1398C19.5889 13.0134 19.3669 13.0306 19.2406 13.178C19.1203 13.3185 19.1301 13.5264 19.2587 13.6551C19.2651 13.6615 19.2718 13.6677 19.2789 13.6737L20.0334 14.3201C20.1808 14.4465 20.4027 14.4294 20.5291 14.2819C20.6554 14.1345 20.6386 13.9119 20.4908 13.7862Z" fill="#FDEDA5"/>
<path d="M17.3714 20.5234L17.466 19.6171C17.4862 19.4241 17.3459 19.2511 17.1528 19.231C16.9597 19.2108 16.7868 19.351 16.7666 19.5442L16.672 20.4505C16.6606 20.5602 16.7009 20.6634 16.7733 20.7357C16.8283 20.7908 16.9019 20.828 16.9852 20.8366C17.1784 20.8568 17.3512 20.7166 17.3714 20.5234Z" fill="#FDEDA5"/>
</svg>
