<svg width="23" height="25" viewBox="0 0 23 25" fill="none" xmlns="http://www.w3.org/2000/svg">
<path d="M6.94444 19.4444H8.33333" stroke="#B4B0B0" stroke-width="2" stroke-linecap="round" stroke-linejoin="round"/>
<path d="M6.94444 15.2778H15.2778C16.7512 15.2778 18.1643 15.8631 19.2061 16.905C20.248 17.9468 20.8333 19.3599 20.8333 20.8333V23.6111H1.38889V20.8333C1.38889 19.3599 1.9742 17.9468 3.01607 16.905C4.05794 15.8631 5.47102 15.2778 6.94444 15.2778V15.2778Z" stroke="#B4B0B0" stroke-width="2" stroke-linecap="round" stroke-linejoin="round"/>
<path d="M12.9667 9.87361L11.4958 10.8542C11.3819 10.93 11.248 10.9705 11.1111 10.9705C10.9742 10.9705 10.8404 10.93 10.7264 10.8542L9.25556 9.87361C8.54461 9.39976 7.96166 8.75769 7.55849 8.00441C7.15532 7.25113 6.94439 6.40995 6.94444 5.55556V5.55556C6.94444 4.45049 7.38343 3.39068 8.16483 2.60928C8.94623 1.82788 10.006 1.38889 11.1111 1.38889V1.38889C12.2162 1.38889 13.276 1.82788 14.0574 2.60928C14.8388 3.39068 15.2778 4.45049 15.2778 5.55556V5.55556C15.2778 6.40995 15.0669 7.25113 14.6637 8.00441C14.2606 8.75769 13.6776 9.39976 12.9667 9.87361V9.87361Z" stroke="#B4B0B0" stroke-width="2" stroke-linecap="round" stroke-linejoin="round"/>
</svg>
