<svg width="25" height="25" viewBox="0 0 25 25" fill="none" xmlns="http://www.w3.org/2000/svg">
<path d="M20.8008 24.2179H4.19922C2.96074 24.2179 1.95312 23.2103 1.95312 21.9718V10.1544C1.95312 9.723 2.30288 9.37319 2.73438 9.37319C3.16587 9.37319 3.51562 9.723 3.51562 10.1544V21.9718C3.51562 22.3488 3.82227 22.6554 4.19922 22.6554H20.8008C21.1777 22.6554 21.4844 22.3488 21.4844 21.9718V10.1544C21.4844 9.723 21.8341 9.37319 22.2656 9.37319C22.6971 9.37319 23.0469 9.723 23.0469 10.1544V21.9718C23.0469 23.2103 22.0393 24.2179 20.8008 24.2179Z" fill="#FFE073"/>
<path d="M24.2188 12.8886C24.0188 12.8886 23.8189 12.8123 23.6664 12.6597L13.9501 2.94355C13.1505 2.14395 11.8495 2.14395 11.0499 2.94355L1.33369 12.6598C1.02862 12.9649 0.533939 12.9649 0.22886 12.6598C-0.0762665 12.3547 -0.0762665 11.86 0.22886 11.5549L9.94507 1.83867C11.3539 0.429882 13.6462 0.429882 15.0549 1.83867L24.7711 11.5549C25.0763 11.86 25.0763 12.3546 24.7711 12.6597C24.6187 12.8123 24.4187 12.8886 24.2188 12.8886Z" fill="#FFE073"/>
<path d="M15.625 24.2179H9.375C8.94351 24.2179 8.59375 23.8681 8.59375 23.4367V16.5031C8.59375 15.1569 9.68897 14.0617 11.0352 14.0617H13.9648C15.311 14.0617 16.4063 15.1569 16.4063 16.5031V23.4367C16.4063 23.8681 16.0565 24.2179 15.625 24.2179ZM10.1563 22.6554H14.8438V16.5031C14.8438 16.0185 14.4495 15.6242 13.9648 15.6242H11.0352C10.5505 15.6242 10.1563 16.0185 10.1563 16.5031V22.6554Z" fill="#FFE073"/>
</svg>
