<svg width="25" height="25" viewBox="0 0 25 25" fill="none" xmlns="http://www.w3.org/2000/svg">
<g clip-path="url(#clip0)">
<path d="M15.8665 7.13043C15.8665 7.66964 15.4293 8.1068 14.8901 8.1068H11.5215C10.9821 8.1068 10.545 7.66964 10.545 7.13043C10.545 6.59122 10.9821 6.15406 11.5215 6.15406H14.8901C15.4293 6.15406 15.8665 6.59122 15.8665 7.13043ZM9.05685 4.52309C8.61588 4.21257 8.00686 4.31824 7.69634 4.75922L6.30264 6.73809L5.57575 6.00395C5.19638 5.62096 4.57821 5.61771 4.19502 5.99709C3.81184 6.37646 3.80878 6.99482 4.18816 7.37801L5.29156 8.49228C5.29652 8.49724 5.30128 8.5022 5.30643 8.50697C5.58987 8.78124 5.96943 8.93383 6.36044 8.93383C6.39362 8.93383 6.427 8.93288 6.46019 8.93059C6.88648 8.90236 7.2834 8.69312 7.54948 8.35686C7.56054 8.34255 7.57141 8.32825 7.58171 8.31337L9.29298 5.8836C9.6035 5.44262 9.49764 4.8336 9.05685 4.52309ZM14.8901 12.064H11.5215C10.9821 12.064 10.545 12.501 10.545 13.0404C10.545 13.5796 10.9821 14.0167 11.5215 14.0167H14.8901C15.4293 14.0167 15.8665 13.5796 15.8665 13.0404C15.8665 12.501 15.4293 12.064 14.8901 12.064ZM9.05685 10.433C8.61588 10.1225 8.00686 10.2282 7.69634 10.6691L6.30264 12.648L5.57575 11.9139C5.19638 11.5307 4.57821 11.5276 4.19502 11.907C3.81184 12.2864 3.80878 12.9047 4.18816 13.2879L5.29156 14.4022C5.29652 14.4072 5.30128 14.4121 5.30643 14.4169C5.58987 14.6912 5.96943 14.8438 6.36044 14.8438C6.39362 14.8438 6.427 14.8428 6.46019 14.8405C6.88648 14.8123 7.2834 14.603 7.54948 14.2668C7.56054 14.2525 7.57141 14.2382 7.58171 14.2233L9.29298 11.7935C9.6035 11.3525 9.49764 10.7433 9.05685 10.433ZM25 3.61271V6.73714C25 8.89072 23.2479 10.6426 21.0945 10.6426H19.8208V16.2081C19.8208 16.7475 19.3836 17.1846 18.8444 17.1846C18.3052 17.1846 17.868 16.7475 17.868 16.2081V3.61271C17.868 3.03307 18.008 2.48585 18.2545 2.00157H3.90549C2.82879 2.00157 1.95274 2.87762 1.95274 3.95432V21.139C1.95274 22.2157 2.82879 23.0917 3.90549 23.0917H15.9153C16.992 23.0917 17.868 22.2157 17.868 21.139C17.868 20.5997 18.3052 20.1626 18.8444 20.1626C19.3836 20.1626 19.8208 20.5997 19.8208 21.139C19.8208 23.2925 18.0687 25.0444 15.9153 25.0444H3.90549C1.75209 25.0444 0 23.2925 0 21.139V3.95432C0 1.80092 1.75209 0.0488281 3.90549 0.0488281H21.4808C21.4958 0.0488281 21.5107 0.050354 21.5256 0.0511169C23.4495 0.0988007 25 1.67751 25 3.61271ZM23.0473 3.61271C23.0473 2.72427 22.3246 2.00157 21.4361 2.00157H21.4319C20.5435 2.00157 19.8208 2.72427 19.8208 3.61271V8.68988H21.0945C22.1712 8.68988 23.0473 7.81384 23.0473 6.73714V3.61271ZM14.8901 17.9222H11.5215C10.9821 17.9222 10.545 18.3594 10.545 18.8986C10.545 19.438 10.9821 19.8751 11.5215 19.8751H14.8901C15.4293 19.8751 15.8665 19.438 15.8665 18.8986C15.8665 18.3594 15.4293 17.9222 14.8901 17.9222ZM9.05685 16.2914C8.61588 15.9809 8.00686 16.0866 7.69634 16.5274L6.30264 18.5064L5.57575 17.7723C5.19638 17.3891 4.57821 17.3861 4.19502 17.7654C3.81184 18.1448 3.80878 18.7632 4.18816 19.1463L5.29156 20.2606C5.29652 20.2656 5.30128 20.2703 5.30643 20.2753C5.58987 20.5496 5.96943 20.7022 6.36044 20.7022C6.39362 20.7022 6.427 20.7012 6.46019 20.6989C6.88648 20.6705 7.2834 20.4615 7.54948 20.125C7.56054 20.1109 7.57141 20.0964 7.58171 20.0817L9.29298 17.6517C9.6035 17.211 9.49764 16.6018 9.05685 16.2914Z" fill="#FFE073"/>
</g>
<defs>
<clipPath id="clip0">
<rect width="25" height="25" fill="white"/>
</clipPath>
</defs>
</svg>
