<svg width="18" height="14" viewBox="0 0 18 14" fill="none" xmlns="http://www.w3.org/2000/svg">
<path d="M16.9531 1.74996H0.546864C0.244974 1.74996 0 1.35793 0 0.874982C0 0.39196 0.24502 0 0.546864 0H16.9531C17.255 0 17.5 0.392033 17.5 0.874982C17.5 1.35793 17.255 1.74996 16.9531 1.74996Z" fill="black"/>
<path d="M0.546864 6.12506H16.9531C17.255 6.12506 17.5 6.51709 17.5 7.00004C17.5 7.48299 17.255 7.87502 16.9531 7.87502H0.546864C0.244974 7.87502 0 7.48299 0 7.00004C0 6.51709 0.244974 6.12506 0.546864 6.12506Z" fill="black"/>
<path d="M0.546871 12.2501H11.4844C11.7863 12.2501 12.0312 12.6421 12.0312 13.125C12.0312 13.6081 11.7862 14 11.4844 14H0.546871C0.244984 14 9.53674e-06 13.608 9.53674e-06 13.125C-3.62396e-05 12.642 0.244984 12.2501 0.546871 12.2501Z" fill="black"/>
</svg>
