<svg width="25" height="25" viewBox="0 0 25 25" fill="none" xmlns="http://www.w3.org/2000/svg">
<path d="M24.9544 5.96787L23.1687 0.610735C23.0473 0.245937 22.7059 -0.000104598 22.3214 3.33588e-08H2.67857C2.2941 -0.000104598 1.95274 0.245937 1.83126 0.610735L0.0455148 5.96787C0.0179966 6.05127 0.00261579 6.13816 0 6.2259C0 6.23484 0 6.24107 0 6.25001V7.14289C0.00324358 8.54181 0.664777 9.85766 1.7857 10.6947C1.7857 10.7018 1.7857 10.7072 1.7857 10.7143V22.3214C1.7857 23.8008 2.98493 25 4.46427 25H20.5357C22.015 25 23.2143 23.8008 23.2143 22.3214V10.7143C23.2143 10.7071 23.2143 10.7018 23.2143 10.6947C24.3352 9.85766 24.9968 8.54181 24.9999 7.14289V6.25001C24.9999 6.24107 24.9999 6.23484 24.9999 6.2259C24.9973 6.13811 24.982 6.05121 24.9544 5.96787ZM18.75 1.7857H21.6777L22.8688 5.35714H18.75V1.7857ZM13.3928 1.7857H16.9643V5.35714H13.3928V1.7857ZM8.03571 1.7857H11.6072V5.35714H8.03571V1.7857ZM3.32232 1.7857H6.25001V5.35714H2.13124L3.32232 1.7857ZM14.2857 23.2143H10.7143V16.0714H14.2857V23.2143ZM21.4286 22.3214C21.4286 22.8146 21.0288 23.2143 20.5357 23.2143H16.0714V15.1786C16.0714 14.6855 15.6717 14.2857 15.1785 14.2857H9.8214C9.32828 14.2857 8.92853 14.6855 8.92853 15.1786V23.2143H4.46427C3.97114 23.2143 3.57139 22.8146 3.57139 22.3214V11.5178C4.82441 11.7751 6.12739 11.476 7.14284 10.6982C8.73669 11.8688 10.9061 11.8688 12.5 10.6982C14.0938 11.8688 16.2633 11.8688 17.8571 10.6982C18.8726 11.4761 20.1755 11.7751 21.4286 11.5178V22.3214ZM20.5357 9.8214C19.7636 9.82093 19.0303 9.48224 18.5294 8.89463C18.205 8.52334 17.6409 8.48536 17.2696 8.80983C17.2395 8.83614 17.2111 8.8645 17.1848 8.89463C16.192 10.0027 14.489 10.0961 13.381 9.10332C13.3077 9.03761 13.238 8.96798 13.1723 8.89463C12.8229 8.52334 12.2386 8.50556 11.8673 8.85503C11.8537 8.86784 11.8404 8.88103 11.8277 8.89463C10.8349 10.0027 9.13188 10.0961 8.02383 9.10332C7.95049 9.03761 7.88085 8.96798 7.81515 8.89463C7.46573 8.52334 6.88141 8.50556 6.51013 8.85503C6.49653 8.86784 6.48329 8.88103 6.47052 8.89463C5.9696 9.48224 5.23645 9.82093 4.46427 9.8214C2.98493 9.8214 1.7857 8.62217 1.7857 7.14284H23.2143C23.2143 8.62217 22.015 9.8214 20.5357 9.8214Z" fill="#B4B0B0"/>
</svg>
